<svg xmlns="http://www.w3.org/2000/svg" viewBox="0 0 511.999 511.999"><path d="M177.641 310.486v96.983c0 44.446-36.046 80.491-80.504 80.491-11.908 0-23.203-2.587-33.369-7.222v-.013c-24.598-11.217-42.563-34.458-46.366-62.219a25.986 25.986 0 01-9.795-6.171c-10.141-10.128-10.141-26.57 0-36.699 10.128-10.155 26.582-10.155 36.724 0l6.761-38.76 4.61-26.391h121.939v.001z" fill="#fcd2be"/><path d="M63.767 480.726c-24.598-11.217-42.563-34.458-46.366-62.219a25.986 25.986 0 01-9.795-6.171c-10.141-10.128-10.141-26.57 0-36.699 10.128-10.155 26.582-10.155 36.724 0l6.761-38.76 21.192 4.302c-8.912 15.405-46.546 71.631-8.516 139.547z" fill="#fab998"/><path d="M215.275 271.239c0 38.632-31.32 69.94-69.94 69.94H72.283v6.492c0 15.442-12.523 27.953-27.966 27.953-7.478-7.478-18.4-9.437-27.671-5.878v-28.568c0-38.62 31.32-69.94 69.94-69.94h128.689z" fill="#f9ce55"/><path d="M143.669 271.239H86.586c-38.62 0-69.94 31.32-69.94 69.94v28.568c9.271-3.559 20.193-1.6 27.671 5.878 15.442 0 27.966-12.51 27.966-27.953v-6.492h1.445c.001-38.62 31.321-69.941 69.941-69.941z" fill="#e2a11e"/><path d="M108.939 396.588a7.928 7.928 0 01-7.928-7.928v-13.314a7.928 7.928 0 0115.856 0v13.314a7.928 7.928 0 01-7.928 7.928zm34.615 0a7.928 7.928 0 01-7.928-7.928v-13.314a7.928 7.928 0 0115.856 0v13.314a7.927 7.927 0 01-7.928 7.928z" fill="#50515b"/><path d="M112.605 456.727c-.143 0-.285-.003-.429-.012-17.848-.952-31.477-8.797-39.412-22.684a7.93 7.93 0 0113.768-7.868c5.202 9.105 14.116 14.057 26.49 14.717a7.928 7.928 0 017.494 8.34 7.93 7.93 0 01-7.911 7.507z" fill="#fff"/><path d="M262.202 58.331H63.618c-12.591 0-22.799 10.208-22.799 22.799v100.277c0 12.591 10.208 22.799 22.799 22.799h111.976v41.226l36.769-41.226h49.839c12.591 0 22.799-10.208 22.799-22.799V81.13c0-12.591-10.207-22.799-22.799-22.799z" fill="#3facc9"/><path d="M265.063 7.591h198.584c12.591 0 22.799 10.208 22.799 22.799v100.277c0 12.591-10.208 22.799-22.799 22.799H351.67v41.226l-36.769-41.226h-49.839c-12.591 0-22.799-10.208-22.799-22.799V30.391c.001-12.592 10.209-22.8 22.8-22.8z" fill="#00c7a9"/><path d="M445.22 55.688h-89.393a7.928 7.928 0 010-15.856h89.393c4.38 0 7.928 3.55 7.928 7.928s-3.548 7.928-7.928 7.928zm-115.822 0H283.49a7.928 7.928 0 010-15.856h45.909a7.929 7.929 0 01-.001 15.856zM445.22 88.194h-27.554a7.928 7.928 0 010-15.856h27.554c4.38 0 7.928 3.55 7.928 7.928s-3.548 7.928-7.928 7.928zm-53.983 0H283.49a7.928 7.928 0 010-15.856h107.747a7.929 7.929 0 010 15.856zm4.757 32.504H283.49a7.927 7.927 0 01-7.928-7.928 7.927 7.927 0 017.928-7.928h112.504a7.929 7.929 0 010 15.856z" fill="#393a42"/><path d="M125.384 103.257h-45.91a7.928 7.928 0 010-15.856h45.909a7.928 7.928 0 01.001 15.856zm77.694 0h-45.909a7.928 7.928 0 010-15.856h45.909a7.928 7.928 0 010 15.856zm15.328 32.504H79.474a7.928 7.928 0 010-15.856h138.932a7.928 7.928 0 010 15.856zm-26.428 32.505h-63.422a7.928 7.928 0 010-15.856h63.422a7.928 7.928 0 010 15.856zm-89.851 0H79.474a7.928 7.928 0 010-15.856h22.652a7.928 7.928 0 01.001 15.856z" fill="#50515b"/><path d="M477.638 504.408s-.137-.053-.402-.169c-4.25-1.913-41.217-19.842-41.217-66.662L314.186 317.224c-5.708-21.121-3.954-58.226 48.49-62.497 3.266-.275 6.734-.412 10.402-.412 62.592 0 124.011 5.032 137.003 97.16 8.69 61.64-13.901 121.526-32.443 152.933z" fill="#6b4b3d"/><path d="M477.638 504.408s-.137-.053-.402-.169c.011-.021.011-.042.011-.063 21.142-179.71-60.256-249.449-114.571-249.449 3.266-.275 6.734-.412 10.402-.412 62.592 0 124.011 5.032 137.003 97.16 8.69 61.64-13.901 121.526-32.443 152.933z" fill="#5b3d2d"/><path d="M471.011 384.389a23.98 23.98 0 01-9.035 5.693c-4.158 30.353-26.656 54.848-55.958 61.958a73.749 73.749 0 01-17.586 2.103c-41.006 0-74.252-33.246-74.252-74.24v-62.678s32.916 1.181 45.908-11.81c18.861 24.483 43.368 27.896 59.619 26.833v-.012c10.405-.685 17.432-3.201 17.432-3.201v21.507l.012-.012c6.898-6.898 16.972-8.704 25.522-5.421 3.035 1.158 5.882 2.976 8.339 5.433 9.353 9.341 9.353 24.505-.001 33.847z" fill="#b37854"/><path d="M471.011 384.389a23.98 23.98 0 01-9.035 5.693c-4.158 30.353-26.656 54.848-55.958 61.958 38.561-21.153 14.02-118.482 13.689-119.794v-.012c10.405-.685 17.432-3.201 17.432-3.201v21.507l.012-.012c6.898-6.898 16.972-8.704 25.522-5.421 3.035 1.158 5.882 2.976 8.339 5.433 9.353 9.343 9.353 24.507-.001 33.849z" fill="#946032"/><path d="M377.553 370.48a7.927 7.927 0 01-7.928-7.928v-12.281a7.928 7.928 0 0115.856 0v12.281a7.927 7.927 0 01-7.928 7.928zm-31.928 0a7.927 7.927 0 01-7.928-7.928v-12.281a7.927 7.927 0 017.928-7.928c4.38 0 7.928 3.55 7.928 7.928v12.281a7.927 7.927 0 01-7.928 7.928z" fill="#50515b"/><path d="M374.17 425.95a7.927 7.927 0 01-7.909-7.506 7.929 7.929 0 017.494-8.34c11.192-.597 19.243-5.06 23.931-13.265a7.928 7.928 0 1113.766 7.868c-7.427 12.998-20.171 20.341-36.851 21.231a8.893 8.893 0 01-.431.012z" fill="#fff"/></svg>