<svg xmlns="http://www.w3.org/2000/svg" viewBox="0 0 46.5 43.2"><defs><style>.cls-1{fill:#0f3755}.cls-3{fill:#019dda}</style></defs><path class="cls-1" d="M16.9 0c1.2 1.1-.2 1.1-.8 1.3s-1.2.4-1.8.7a24 24 0 011.1 2.3 4.35 4.35 0 01.4.7 15.93 15.93 0 016.4-1.3c.4.7.2 1-.5 1.1A17.79 17.79 0 0010.5 10c-.1.1-.2.1-.5.2a4.35 4.35 0 01-.6-.7 18.2 18.2 0 015.2-3.9c-.5-1-1-1.9-1.4-2.8-1.2-.1-1.9 1.7-3.6.7C11.8 1.7 14.2 1 16.5 0zM30 0c2.4 1 5 1.6 6.7 3.4a4.23 4.23 0 00-.5.7c-.9-.5-1.8-1-2.8-1.5-.5 1-1 1.9-1.5 2.9a21 21 0 014.7 3.4c.3.3.5.6.2.9a.56.56 0 01-.9 0 17.78 17.78 0 00-11.5-5.2c-.3-.4-.4-.6 0-1a17.31 17.31 0 016.3 1.3c.5-.9 1-1.9 1.5-2.9-1-.4-1.9-.7-2.7-1-.4-.5 0-.8.3-1zM0 17.9c.5-1.5.9-3 1.4-4.5.1-.4.3-1 .9-.8s.4.8.2 1.2c-.2.6-.4 1.3-.7 2 1.1.3 2.2.5 3.4.8a16.84 16.84 0 013-5.6c.8.1.9.5.6 1a15.53 15.53 0 00-2.7 11.8c-.3.1-.5.2-1 .4a15.37 15.37 0 01-.1-6.4c-1.1-.2-2.2-.5-3.4-.7-.2 1-.3 1.9-.5 3-.5-.2-.8-.3-1-.4a10.87 10.87 0 01-.1-1.8zm46.5 2c-.3.1-.7.2-1.1.3-.2-1.1-.3-2-.5-3.1-1.2.2-2.2.5-3.4.7a17.59 17.59 0 01.1 5.6c-.1.4-.2.8-.7.7s-.5-.5-.4-.8a16 16 0 00-2.7-11.2c-.2-.3-.4-.7.1-.9s.8.1 1 .4a17.77 17.77 0 012.4 5c1.1-.2 2.2-.5 3.4-.7-.3-1-.6-1.9-.9-2.8.8-.5 1.2-.2 1.3.4.5 1.8 1 3.6 1.4 5.3zM21 43a3.55 3.55 0 00-1-.2c-.4-.1-.9-.2-.8-.7s.5-.5.9-.4c.8.1 1.6.1 2.4.2v-3.2c-2.2-.3-4.5-.4-6.5-2 4.7 1 9.3 1.5 13.7-.3.5.2.6.5.4 1a21.45 21.45 0 01-6.3 1.4V42c1.1-.1 2.1-.1 3.2-.2v1a14.91 14.91 0 01-1.8.4h-.8a6.15 6.15 0 00-2.7 0 .84.84 0 00-.7-.2z"/><path d="M21.8 43a4.16 4.16 0 012.7 0z" fill="#566b7e"/><path class="cls-3" d="M29.2 15.4a7.49 7.49 0 012.6 5.2c-.4.2-.9.3-1.3.5a10.41 10.41 0 01-.5-1.2c0 .7-.2 1.6 1.9 1.5-2.7.9-2.4 3.7-4.6 4-1.7-1.2 1.5-4.1-2.1-4.6a9.22 9.22 0 00-.5-.8 2.78 2.78 0 011.4-1.9c1.6-.6 2.5 1.3 4 .7-.3-.3-.5-.6-.7-.8a.37.37 0 01.3-.1c-.1 0-.2.1-.3.2h-.6a2.19 2.19 0 01-.3-.5c-.9-.5-1.5.1-2.1.3-.4-.7 0-.7.5-.7-.1-.3-.1-.5-.2-.9a4.13 4.13 0 002.9 0 2.18 2.18 0 00-.4-.5c-.2-.3-.1-.4 0-.4z"/><path d="M37.4 32.5c-4.9 4.1-5 4.2-5.9 3a20.57 20.57 0 009.1-10 9.48 9.48 0 01-2.4 5.9c.9.7 1.7 1.3 2.6 1.9 1.1-.5 1-2.2 2.6-2.3.2 1.8-4 6.4-5.3 5.9.1-1.2 1.5-1.5 2-2.6a21.11 21.11 0 01-2.7-1.8z" fill="#103755"/><path class="cls-1" d="M6.2 25.4a3.13 3.13 0 01.5 1 16.39 16.39 0 007.2 8.6c.4.2 1 .5.6 1s-.8.2-1.2-.1A17.86 17.86 0 019 32.4c-.9.7-1.8 1.3-2.6 1.9.2 1.1 2.1 1.4 1.6 3.2a17 17 0 01-5.1-6.1c-.1-.2.1-.3.9-.4.5.8 1.1 1.6 1.7 2.4.9-.7 1.8-1.3 2.7-1.9-1.1-1.9-2.6-3.7-2-6.1z"/><path d="M10 24.6c1.8.3 1.2 2.3 2.4 2.9a1.71 1.71 0 012-.7 1.39 1.39 0 011 1.1c.1.9-.4 1.4-1.4 1.7 1 .7 1.8 1.4 2.7 2.1 0 .5-.2.8-.7.8-2.1-.3-6.4-5.8-6-7.9z" fill="#349d49"/><path d="M22.3 8.8c-1.1.2-2.2.5-3.4.7.8 1 1.1 2-.3 2.6s-1.9-.3-2.2-1.4c-1 .7-1.9 1.4-2.7 2-.5-.2-.8-.5-.5-.9.9-1.6 7-4.3 8.8-3.9q.6.15.3.9z" fill="#cd8b4e"/><path class="cls-3" d="M17 18.7c-1.1 0-.3-1.7-1.6-1.3a7.78 7.78 0 015.5-4.1c-.1.3-.2.5-.3.8.3.1.5.3.8.4 0 .1-.1.3-.2.3s-.4.1-.4.5c.6-.1 1.3-.7 1.8.2 0 .2.1.5.1.8h-1.3c.2.2.3.4.5.6-1.4-.4-2.1.4-3 1.1-.3-.5-.9-.4-1.4-.4-.4.3-.7.6-.3 1.1.1 0 0 .1-.2 0z"/><path d="M33.6 12.2a3.39 3.39 0 01-.6.6c-1-.7-1.9-1.4-2.9-2.1-.4 1.2-1.1 2.1-2.4 1.4-1.1-.6-.9-1.5-.2-2.4-1-.8-2.6-.2-3.5-1.3 1.4-1.4 7.8 1.2 9.6 3.8z" fill="#018ccf"/><path d="M24.7 33c1.3.4 2.5-1 3.8-.2-1.3 1.7-7.4 1.9-10.3.5-.1-.8-.1-.8 3.6-.2-.2-1.1 0-2.3 1.5-2.2s1.6 1.1 1.4 2.1z" fill="#993f98"/><path d="M36.1 19.6c-1.2.4-2.3.5-2.6-.8s.7-1.7 1.9-1.7C35 16 34.5 15 34.1 14c0-.1.2-.2.5-.5a7.6 7.6 0 012.3 4.3 12.35 12.35 0 01.4 4.7c-.1.4-.1.7-.6.7s-.6-.4-.6-.9z" fill="#f16531"/><path d="M32.5 29.6c-.9-.4-1.5-.8-1.4-1.6a1.27 1.27 0 011-1.2 1.59 1.59 0 012 .9c.6-1 1.2-2 1.8-2.9 0-.1.4.1.6.1.2 2-3.9 7.2-6 7.6-.2 0-.7-.2-.7-.3a1.14 1.14 0 01.3-.8 21.45 21.45 0 012.4-1.8z" fill="#c8252c"/><path d="M12.8 13.2c-.8 1.7-1.3 2.8-1.9 3.9 1.4 0 2.3.5 2 1.8s-1.4 1.2-2.6.7v2.7c0 .4 0 .7-.5.8s-.6-.3-.7-.7a12.11 12.11 0 012.1-8.4 10.43 10.43 0 011.6-.8z" fill="#7fc241"/><path class="cls-3" d="M19.2 26.3a2.1 2.1 0 01-.4-2c.1-.8.3-1.5-.3-2.2s-.4-1.3.1-2a.76.76 0 011.1-.3c.6.4 1.5.6 1.5 1.6.6.3 1.1.6 1.6.9-.3.5-.6.9-.7 1.1-1.2.9-2.6 1.4-2.9 2.9z"/><path d="M22.8 14.1v-1a9 9 0 015.3 1.4c-1.5.3-2.9.7-4.4 1-.8-.5.4-.9.2-1.4a3.75 3.75 0 00-1 .1c-.1 0-.2 0-.1-.1zm5.4 13.3c-.7.9-1.8.6-2.7 1a5.58 5.58 0 00-.5-.8c1.1-.7 2.1-1.4 3.2-.2z" fill="#039dda"/><path d="M19.3 28.2c1.7-.7 3.1 0 4.8.8a9.57 9.57 0 01-4.8-.8z" fill="#0c9fdb"/><path d="M29.2 15.4l-.2.2c-.2.2-.3.4-.5.6-.2-.2-.5-.3-.9-.6.7.1.9-.9 1.6-.2z" fill="#1ba3dc"/><path d="M29.3 25.5c-.1-.9.2-1.3 1.1-1.4a17.1 17.1 0 00-1.1 1.4z" fill="#1da2dc"/><path d="M17 18.7c.1-.1.2-.1.2-.2h.7c.1.3.1.7.2 1.2a10 10 0 00-1.1-1z" fill="#129eda"/><path d="M22.5 14.3a1.09 1.09 0 01-1.3.3c.1 0 .1-.1.2-.1a3.59 3.59 0 011.1-.2z" fill="#4ab1e1"/></svg>