<svg xmlns="http://www.w3.org/2000/svg" viewBox="0 0 50 50"><path fill="#FEFEFE" d="M47.5 24.7v22.4c0 .6-.1.7-.7.7H26.3c.1-.6.9-.3 1.2-.8-.5-.3-1-.1-1.5-.1-1.1.1-1.4-.2-1.5-1.2-.2-2.4-.1-2.5 2.5-2.9 1.7-.2 2.8-.6 3.6-1.2-4.3 1.3-8.5 1.2-12.7-.1.1.5.5.6.9.7 1.1.4 2.2.6 3.4.7 1.7.2 1.9.4 1.9 1.9v.5c0 1.4-.4 1.7-1.9 1.5-.4 0-.8-.2-1.2.1.2.5 1.1.2 1.1.8H1.8c-.6 0-.7-.1-.7-.7C1 39.6 1 32 1 24.5c.2-.1.5-.2.7-.3.3-.6.3-1.2.4-1.8.2-.6.5-.9 1.2-.7.1 0 .3 0 .4.1 2.4.4 2.4.4 2.3 2.7v2.8c0 .3-.1.7.5 1.1-.2-2.2-.1-4.3.4-6.3s1.5-3.8 2.4-5.7c-1.6 1.3-2 3.3-3 5.1-1.3 0-2.5-.2-3.5-.8-.4-1 .4-1.8.4-2.8-.5.1-.6.5-.7.8-.4 1-.7 2-.9 3.1-.1.4 0 .9-.7.9C1 17 1 11.2 1 5.5c0-.6.1-.7.7-.7h15.7c0 .6-.6.6-1 .7-1.5.5-3 1.2-4.3 2-.3.2-.6.3-.7.7.6.1 1-.3 1.5-.5 1.1-.5 1.5-.4 2 .6.3.6.7 1.2.8 2.1-1.5 1.2-3.5 2-4.5 3.9 3.3-2.9 7.2-4.6 11.7-5.2-.5-.5-.9-.4-1.4-.3-1.3.2-2.6.5-3.8.9-.8.3-1.3.1-1.6-.7-.2-.5-.5-.9-.7-1.4-.3-.7-.1-1.1.6-1.4.6-.3 1.2-.4 1.7-.7.3-.3.1-.6.2-.8h13c.1.2 0 .5.2.8.3.5.9.5 1.4.8.7.3.9.7.7 1.4-.1.2-.2.3-.3.5-.8 1.8-1.1 1.9-3 1.3-.9-.3-1.8-.5-2.8-.7-.4-.1-.9-.2-1.5.2 2.3.5 4.5.9 6.4 1.8 2 .9 3.6 2.2 5.4 3.7.1-.7-.3-.9-.6-1.2-1-.8-2-1.6-3.1-2.2-.9-.6-1.1-.9-.6-1.8.9-1.7 1-2.8 3.4-1.1.2.1.4.2.6.1-.1-.5-.5-.7-.8-.9-1.4-.8-2.8-1.5-4.3-2-.4-.1-.9-.1-1-.7h16.4v18.7c-.6-.1-.5-.5-.5-.9-.3-1.3-.5-2.5-1-3.7-.1-.3-.1-.6-.6-.8-.2.9.6 1.6.3 2.6-1 .7-2.2.8-3.5.9-.9-1.7-1.3-3.7-2.8-5.2-.2.5.1.8.2 1.1 1.6 2.5 2.3 5.3 2.5 8.1 0 .5 0 1-.1 1.4-.1.4-.1.8.1 1.3.4-.3.4-.6.4-1 0-1.2.1-2.4-.1-3.6-.2-1.1.1-1.5 1.2-1.7 2.9-.6 2.7-.6 3 1.8 0 .2.1.3.1.5.3.3.6.3.9.5z"/><path fill="#0F3755" d="M17.9 4.8c1.2 1.1-.2 1.1-.8 1.3-.6.3-1.2.4-1.8.7.4.8.8 1.5 1.1 2.3.1.2.3.4.4.7 2.1-.8 4.2-1.4 6.4-1.3.4.7.2 1-.5 1.1-4.4.4-8.2 2.2-11.2 5.2-.1.1-.2.1-.5.2-.2-.2-.4-.4-.6-.7 1.5-1.7 3.2-2.8 5.2-3.9-.5-1-1-1.9-1.4-2.8-1.2-.1-1.9 1.7-3.6.7 2.2-1.8 4.6-2.5 6.9-3.5h.4zM31 4.8c2.4 1 5 1.6 6.7 3.4-.2.2-.3.4-.5.7-.9-.5-1.8-1-2.8-1.5-.5 1-1 1.9-1.5 2.9 1.8 1 3.4 2.1 4.7 3.4.3.3.5.6.2.9-.3.3-.6.3-.9 0-3.1-3.2-7.1-4.8-11.5-5.2-.3-.4-.4-.6 0-1 2.2-.1 4.2.6 6.3 1.3.5-.9 1-1.9 1.5-2.9-1-.4-1.9-.7-2.7-1-.4-.5 0-.8.3-1h.2zM1 22.7c.5-1.5.9-3 1.4-4.5.1-.4.3-1 .9-.8.7.2.4.8.2 1.2-.2.6-.4 1.3-.7 2 1.1.3 2.2.5 3.4.8.8-2 1.5-4 3-5.6.8.1.9.5.6 1-2.5 3.6-3.4 7.5-2.7 11.8-.3.1-.5.2-1 .4-.6-2.2-.4-4.3-.1-6.4-1.1-.2-2.2-.5-3.4-.7-.2 1-.3 1.9-.5 3-.5-.2-.8-.3-1-.4-.1-.6-.1-1.2-.1-1.8zM47.5 24.7c-.3.1-.7.2-1.1.3-.2-1.1-.3-2-.5-3.1-1.2.2-2.2.5-3.4.7.3 1.9.4 3.8.1 5.6-.1.4-.2.8-.7.7-.5-.1-.5-.5-.4-.8.5-4-.4-7.8-2.7-11.2-.2-.3-.4-.7.1-.9.5-.3.8.1 1 .4 1.1 1.5 1.8 3.2 2.4 5 1.1-.2 2.2-.5 3.4-.7-.3-1-.6-1.9-.9-2.8.8-.5 1.2-.2 1.3.4.5 1.8 1 3.6 1.4 5.3v1.1zM22 47.8c-.3-.1-.7-.2-1-.2-.4-.1-.9-.2-.8-.7.1-.5.5-.5.9-.4.8.1 1.6.1 2.4.2v-3.2c-2.2-.3-4.5-.4-6.5-2 4.7 1 9.3 1.5 13.7-.3.5.2.6.5.4 1-1.9.9-4.1 1.1-6.3 1.4v3.2c1.1-.1 2.1-.1 3.2-.2v1c-.7.2-1.2.3-1.8.4h-.8c-.9-.2-1.8-.2-2.7 0-.2-.2-.4-.2-.7-.2z"/><path fill="#566B7E" d="M22.8 47.8c.9-.3 1.8-.3 2.7 0h-2.7z"/><path fill="#019DDA" d="M30.2 20.2c1.6 1.4 2.4 3.1 2.6 5.2-.4.2-.9.3-1.3.5-.2-.5-.4-.8-.5-1.2 0 .7-.2 1.6 1.9 1.5-2.7.9-2.4 3.7-4.6 4-1.7-1.2 1.5-4.1-2.1-4.6-.1-.2-.3-.5-.5-.8.2-.9.7-1.5 1.4-1.9 1.6-.6 2.5 1.3 4 .7-.3-.3-.5-.6-.7-.8.1-.1.2-.1.3-.1-.1 0-.2.1-.3.2h-.6c-.1-.1-.2-.3-.3-.5-.9-.5-1.5.1-2.1.3-.4-.7 0-.7.5-.7-.1-.3-.1-.5-.2-.9 1 .5 2 .2 2.9 0-.1-.2-.3-.4-.4-.5-.2-.3-.1-.4 0-.4z"/><path fill="#103755" d="M38.4 37.3c-4.9 4.1-5 4.2-5.9 3 4.3-2.3 7.1-5.7 9.1-10 0 2.4-1.1 4.2-2.4 5.9.9.7 1.7 1.3 2.6 1.9 1.1-.5 1-2.2 2.6-2.3.2 1.8-4 6.4-5.3 5.9.1-1.2 1.5-1.5 2-2.6-.9-.5-1.8-1.1-2.7-1.8z"/><path fill="#0F3755" d="M7.2 30.2c.2.3.4.6.5 1 1.3 3.7 3.8 6.5 7.2 8.6.4.2 1 .5.6 1-.4.6-.8.2-1.2-.1-1.6-.9-3-2.1-4.3-3.5-.9.7-1.8 1.3-2.6 1.9.2 1.1 2.1 1.4 1.6 3.2-2.3-1.9-4.1-3.8-5.1-6.1-.1-.2.1-.3.9-.4.5.8 1.1 1.6 1.7 2.4.9-.7 1.8-1.3 2.7-1.9-1.1-1.9-2.6-3.7-2-6.1z"/><path fill="#349D49" d="M11 29.4c1.8.3 1.2 2.3 2.4 2.9.5-.6 1.1-1 2-.7.6.2.9.6 1 1.1.1.9-.4 1.4-1.4 1.7 1 .7 1.8 1.4 2.7 2.1 0 .5-.2.8-.7.8-2.1-.3-6.4-5.8-6-7.9z"/><path fill="#CD8B4E" d="M23.3 13.6c-1.1.2-2.2.5-3.4.7.8 1 1.1 2-.3 2.6-1.3.5-1.9-.3-2.2-1.4-1 .7-1.9 1.4-2.7 2-.5-.2-.8-.5-.5-.9.9-1.6 7-4.3 8.8-3.9.4.1.5.4.3.9z"/><path fill="#019DDA" d="M18 23.5c-1.1 0-.3-1.7-1.6-1.3 1.1-2.2 3.4-3.8 5.5-4.1-.1.3-.2.5-.3.8.3.1.5.3.8.4 0 .1-.1.3-.2.3-.1.1-.4.1-.4.5.6-.1 1.3-.7 1.8.2 0 .2.1.5.1.8h-1.3c.2.2.3.4.5.6-1.4-.4-2.1.4-3 1.1-.3-.5-.9-.4-1.4-.4-.4.3-.7.6-.3 1.1.1 0 0 .1-.2 0z"/><path fill="#018CCF" d="M34.6 17c-.2.2-.3.4-.6.6-1-.7-1.9-1.4-2.9-2.1-.4 1.2-1.1 2.1-2.4 1.4-1.1-.6-.9-1.5-.2-2.4-1-.8-2.6-.2-3.5-1.3 1.4-1.4 7.8 1.2 9.6 3.8z"/><path fill="#993F98" d="M25.7 37.8c1.3.4 2.5-1 3.8-.2-1.3 1.7-7.4 1.9-10.3.5-.1-.8-.1-.8 3.6-.2-.2-1.1 0-2.3 1.5-2.2 1.4 0 1.6 1.1 1.4 2.1z"/><path fill="#F16531" d="M37.1 24.4c-1.2.4-2.3.5-2.6-.8-.3-1.3.7-1.7 1.9-1.7-.4-1.1-.9-2.1-1.3-3.1 0-.1.2-.2.5-.5 1.4 1.2 1.9 2.7 2.3 4.3.4 1.5.6 3.1.4 4.7-.1.4-.1.7-.6.7s-.6-.4-.6-.9v-2.7z"/><path fill="#C8252C" d="M33.5 34.4c-.9-.4-1.5-.8-1.4-1.6 0-.6.4-1 1-1.2.9-.3 1.5.1 2 .9.6-1 1.2-2 1.8-2.9 0-.1.4.1.6.1.2 2-3.9 7.2-6 7.6-.2 0-.7-.2-.7-.3 0-.3.1-.6.3-.8.8-.7 1.5-1.2 2.4-1.8z"/><path fill="#7FC241" d="M13.8 18c-.8 1.7-1.3 2.8-1.9 3.9 1.4 0 2.3.5 2 1.8-.3 1.2-1.4 1.2-2.6.7v2.7c0 .4 0 .7-.5.8-.5.1-.6-.3-.7-.7-.4-3 .4-5.8 2.1-8.4.2-.2.6-.3 1.6-.8z"/><path fill="#019DDA" d="M20.2 31.1c-.6-.6-.5-1.3-.4-2 .1-.8.3-1.5-.3-2.2-.6-.7-.4-1.3.1-2 .3-.5.8-.5 1.1-.3.6.4 1.5.6 1.5 1.6.6.3 1.1.6 1.6.9-.3.5-.6.9-.7 1.1-1.2.9-2.6 1.4-2.9 2.9z"/><path fill="#039DDA" d="M23.8 18.9v-1c1.9-.1 3.7.4 5.3 1.4-1.5.3-2.9.7-4.4 1-.8-.5.4-.9.2-1.4-.3 0-.6 0-1 .1-.1 0-.2 0-.1-.1zM29.2 32.2c-.7.9-1.8.6-2.7 1-.2-.3-.3-.6-.5-.8 1.1-.7 2.1-1.4 3.2-.2z"/><path fill="#0C9FDB" d="M20.3 33c1.7-.7 3.1 0 4.8.8-1.8.2-3.3-.2-4.8-.8z"/><path fill="#F0F7FB" d="M23.8 18.9c.1 0 .1.1.1.1-.1.4-.2.8-.2 1.3-.3-.1-.5-.2-.8-.3-.4.2-.7.5-1.2.7-.2-.3-.4-.6-.6-1 .4-.1.8-.2 1.1-.3.5 0 .9-.2 1.3-.3.1-.1.2-.2.3-.2z"/><path fill="#1BA3DC" d="M30.2 20.2l-.2.2c-.2.2-.3.4-.5.6-.2-.2-.5-.3-.9-.6.7.1.9-.9 1.6-.2z"/><path fill="#1DA2DC" d="M30.3 30.3c-.1-.9.2-1.3 1.1-1.4-.4.5-.7.8-1.1 1.4z"/><path fill="#129EDA" d="M18 23.5c.1-.1.2-.1.2-.2h.7c.1.3.1.7.2 1.2-.4-.4-.7-.7-1.1-1z"/><path fill="#4AB1E1" d="M23.5 19.1c-.4.4-.8.5-1.3.3.1 0 .1-.1.2-.1.3-.1.7-.2 1.1-.2z"/><path fill="#EBF5FB" d="M30.2 22.7c.1-.3.1-.5.7-.5.5.1.3.4.6.6-.5 0-.9 0-1.3-.1z"/></svg>